<?xml version="1.0" encoding="utf-8"?>
<!-- Generator: Adobe Illustrator 25.0.0, SVG Export Plug-In . SVG Version: 6.00 Build 0)  -->
<svg version="1.1" id="Layer_1" xmlns="http://www.w3.org/2000/svg" xmlns:xlink="http://www.w3.org/1999/xlink" x="0px" y="0px"
	 viewBox="0 0 100 100" style="enable-background:new 0 0 100 100;" xml:space="preserve">
<style type="text/css">
	.st0{fill:#FFFFFF;}
	.st1{fill:none;}
</style>
<g id="Layer_2_1_">
	<g id="Layer_1-2">
		<path class="st0" d="M50,6.5C74,6.5,93.5,26,93.5,50S74,93.5,50,93.5S6.5,74,6.5,50C6.5,26,26,6.5,50,6.5 M50,2.5
			C23.8,2.5,2.5,23.8,2.5,50S23.8,97.5,50,97.5S97.5,76.2,97.5,50C97.5,23.8,76.2,2.5,50,2.5z"/>
		<rect class="st1" width="100" height="100"/>
		<path class="st0" d="M44,42h-6v8h6v23.9h10V50h7.3l0.7-8h-8v-3.3c0-1.9,0.4-2.7,2.2-2.7H62v-10h-7.6c-7.2,0-10.4,3.2-10.4,9.2V42z
			"/>
	</g>
</g>
</svg>
