<svg xmlns="http://www.w3.org/2000/svg" viewBox="0 0 100 100"><defs><style>.cls-1{fill:#fff;}.cls-2{fill:none;}</style></defs><g id="Layer_2" data-name="Layer 2"><g id="Layer_1-2" data-name="Layer 1"><path class="cls-1" d="M59.8,25.75H40.2A14.46,14.46,0,0,0,25.75,40.2V59.8A14.46,14.46,0,0,0,40.2,74.25H59.8A14.46,14.46,0,0,0,74.25,59.8V40.2A14.46,14.46,0,0,0,59.8,25.75ZM69.37,59.8a9.56,9.56,0,0,1-9.57,9.57H40.2a9.56,9.56,0,0,1-9.57-9.57V40.2a9.56,9.56,0,0,1,9.57-9.57H59.8a9.56,9.56,0,0,1,9.57,9.57V59.8Z"/><path class="cls-1" d="M50,37.46A12.54,12.54,0,1,0,62.54,50,12.55,12.55,0,0,0,50,37.46Zm0,20.2A7.66,7.66,0,1,1,57.66,50,7.66,7.66,0,0,1,50,57.66Z"/><circle class="cls-1" cx="62.57" cy="37.55" r="3.01"/><path class="cls-1" d="M50,6.5A43.5,43.5,0,1,1,6.5,50,43.51,43.51,0,0,1,50,6.5m0-4A47.5,47.5,0,1,0,97.5,50,47.56,47.56,0,0,0,50,2.5Z"/><rect class="cls-2" width="100" height="100"/></g></g></svg>