<?xml version="1.0" encoding="utf-8"?>
<!-- Generator: Adobe Illustrator 25.0.0, SVG Export Plug-In . SVG Version: 6.00 Build 0)  -->
<svg version="1.1" id="Layer_1" xmlns="http://www.w3.org/2000/svg" xmlns:xlink="http://www.w3.org/1999/xlink" x="0px" y="0px"
	 viewBox="0 0 100 100" style="enable-background:new 0 0 100 100;" xml:space="preserve">
<style type="text/css">
	.st0{fill:#FFFFFF;}
	.st1{fill:none;}
</style>
<g id="Layer_2_1_">
	<g id="Layer_1-2">
		<path class="st0" d="M50,6.5C74,6.5,93.5,26,93.5,50S74,93.5,50,93.5S6.5,74,6.5,50C6.5,26,26,6.5,50,6.5 M50,2.5
			C23.8,2.5,2.5,23.8,2.5,50S23.8,97.5,50,97.5S97.5,76.2,97.5,50C97.5,23.8,76.2,2.5,50,2.5z"/>
		<rect class="st1" width="100" height="100"/>
		<g>
			<rect x="27.6" y="40.6" class="st0" width="9.1" height="33.4"/>
			<ellipse class="st0" cx="32.2" cy="31.4" rx="5.3" ry="5.4"/>
			<path class="st0" d="M73.1,74H64V57c0-10.2-12.1-9.4-12.1,0v17h-9.1V40.6h9.1v5.4c4.2-7.8,21.2-8.4,21.2,7.5V74z"/>
		</g>
	</g>
</g>
</svg>
