<?xml version="1.0" encoding="utf-8"?>
<!-- Generator: Adobe Illustrator 26.5.0, SVG Export Plug-In . SVG Version: 6.00 Build 0)  -->
<svg version="1.1" id="Layer_1" xmlns="http://www.w3.org/2000/svg" xmlns:xlink="http://www.w3.org/1999/xlink" x="0px" y="0px"
	 viewBox="0 0 317.1 107.8" style="enable-background:new 0 0 317.1 107.8;" xml:space="preserve">
<style type="text/css">
	.st0{fill:#E11383;}
	.st1{fill:#4A0D66;}
</style>
<polygon id="XMLID_2_" class="st0" points="88.5,42.5 95.3,49.4 121,49.4 101.8,25.6 "/>
<path id="XMLID_13_" class="st0" d="M275.2,72c-2.3,0-4-1.7-4-4.3c0-2.5,1.7-4.3,4-4.3c2.2,0,4.1,1.8,4.1,4.3
	C279.3,70.3,277.3,72,275.2,72 M284.6,59.4h-5.3v1.3c-1.3-1.2-3-1.8-5.2-1.8c-4.4,0-8.1,3.6-8.1,8.8c0,5.3,3.7,8.8,8.1,8.8
	c2.2,0,3.9-0.7,5.2-1.8v1.1c0,2.6-2.1,3.8-4.5,3.8c-1.7,0-2.7-0.6-3.9-2.1l-4.4,2.7c1.6,2.7,4.5,4,8.3,4c5.4,0,9.8-2.8,9.8-7.9V59.4
	z M258,58.9c-2.1,0-3.8,0.8-5.1,2.1v-1.6h-5.3V76h5.3v-7.7c0-3.2,1.4-4.6,3.4-4.6c1.7,0,2.8,1.3,2.8,3.3V76h5.3V65.8
	C264.5,61.6,261.9,58.9,258,58.9 M244.5,59.4h-5.3V76h5.3V59.4z M241.8,51.5c-1.8,0-3,1.4-3,3c0,1.7,1.3,2.9,3,2.9
	c1.8,0,3.1-1.3,3.1-2.9C244.9,52.9,243.6,51.5,241.8,51.5 M237.8,59.3h-5.6l-4,10.3l-4-10.3h-5.6l6.9,16.7h5.4L237.8,59.3z M210,72
	c-2.2,0-4.1-1.7-4.1-4.3c0-2.6,2-4.3,4.1-4.3c2.1,0,4,1.7,4,4.3C214,70.3,212.1,72,210,72 M210,59c-5,0-9.2,3.5-9.2,8.7
	c0,5.3,4.2,8.8,9.2,8.8c4.9,0,9.1-3.5,9.1-8.8C219.1,62.5,215,59,210,59 M192.9,58.9c-2.6,0-4.6,1.1-5.9,2.8
	c-1.1-1.8-3.1-2.8-5.4-2.8c-2.2,0-3.8,0.8-4.9,2v-1.5h-5.3V76h5.3v-8.1c0-2.8,1.3-4.2,3.2-4.2c1.6,0,2.8,1.2,2.8,3.1V76h5.3v-8.1
	c0-2.8,1.3-4.2,3.2-4.2c1.6,0,2.8,1.2,2.8,3.1V76h5.3V65.6C199.3,61.6,196.5,58.9,192.9,58.9"/>
<path id="XMLID_4_" class="st1" d="M170.3,59.3h-5.7l-4.2,9.7l-3.9-9.7h-5.7l6.9,16.1l-3.7,8.5h5.7L170.3,59.3z M148.3,50.5H143
	v20.2c0,3.4,2.3,5.8,5.7,5.8c1.9,0,2.9-0.6,3.9-1l-0.8-4.1c-0.8,0.3-1.5,0.5-1.9,0.5c-1,0-1.6-0.6-1.6-1.5V50.5z M138.1,50.5h-5.3
	v20.2c0,3.4,2.3,5.8,5.7,5.8c1.9,0,2.9-0.6,3.9-1l-0.8-4.1c-0.8,0.3-1.5,0.5-1.9,0.5c-1,0-1.6-0.6-1.6-1.5V50.5z M122.2,72.5
	c-1.4,0-2.3-0.7-2.3-1.7c0-1,0.8-1.7,2.2-1.7h3.6v0.4C125.7,71.3,124,72.5,122.2,72.5 M123.2,58.9c-4,0-6.9,2-7.6,5.2l5,1
	c0.3-1.5,1.2-2.1,2.8-2.1c1.4,0,2.4,0.9,2.4,2.3v0.3h-4.2c-4.4,0-6.9,2.1-6.9,5.4c0,3.3,2.5,5.4,6.2,5.4c2.2,0,3.8-0.7,5-1.7V76h5.1
	V65.5C130.8,61.2,127.8,58.9,123.2,58.9 M105.3,63.2c1.5,0,2.8,0.8,3.3,2.6h-6.9C102.3,64.1,103.9,63.2,105.3,63.2 M113.9,67.7
	c-0.1-5.4-3.9-8.8-8.6-8.8c-4.8,0-8.8,3.6-8.8,8.8c0,5.3,4,8.8,8.8,8.8c3.8,0,6.8-1.7,8.2-5.2l-4.7-1c-0.9,1.6-2.3,1.9-3.5,1.9
	c-1.8,0-3.1-1.2-3.6-3.2h12.2V67.7z M95.3,59.2c-2.7,0-4.5,1.4-5.7,3.4v-3.2h-5.3V76h5.3v-5.2c0-4.3,2-6.2,5.7-6.2h1l0.2-5.3
	C96.1,59.2,95.7,59.2,95.3,59.2"/>
<polygon id="XMLID_1_" class="st1" points="74,23.8 32.5,75.1 59.9,75 100.2,23.8 "/>
<polygon id="XMLID_43_" class="st0" points="569.1,-51.5 575.9,-44.6 601.6,-44.6 582.4,-68.4 "/>
<path id="XMLID_33_" class="st0" d="M755.8-22c-2.3,0-4-1.7-4-4.3c0-2.5,1.7-4.3,4-4.3c2.2,0,4.1,1.8,4.1,4.3
	C759.8-23.7,757.9-22,755.8-22 M765.1-34.6h-5.3v1.3c-1.3-1.2-3-1.8-5.2-1.8c-4.4,0-8.1,3.6-8.1,8.8c0,5.3,3.7,8.8,8.1,8.8
	c2.2,0,3.9-0.7,5.2-1.8v1.1c0,2.6-2.1,3.8-4.5,3.8c-1.7,0-2.7-0.6-3.9-2.1l-4.4,2.7c1.6,2.7,4.5,4,8.3,4c5.4,0,9.8-2.8,9.8-7.9
	V-34.6z M738.6-35.1c-2.1,0-3.8,0.8-5.1,2.1v-1.6h-5.3V-18h5.3v-7.7c0-3.2,1.4-4.6,3.4-4.6c1.7,0,2.8,1.3,2.8,3.3v9.1h5.3v-10.2
	C745-32.4,742.5-35.1,738.6-35.1 M725.1-34.6h-5.3V-18h5.3V-34.6z M722.4-42.5c-1.8,0-3,1.4-3,3c0,1.7,1.3,2.9,3,2.9
	s3.1-1.3,3.1-2.9C725.5-41.1,724.2-42.5,722.4-42.5 M718.4-34.6h-5.6l-4,10.3l-4-10.3h-5.6l6.9,16.7h5.4L718.4-34.6z M690.6-22
	c-2.2,0-4.1-1.7-4.1-4.3c0-2.6,2-4.3,4.1-4.3c2.1,0,4,1.7,4,4.3C694.6-23.7,692.7-22,690.6-22 M690.6-35c-5,0-9.2,3.5-9.2,8.7
	c0,5.3,4.2,8.8,9.2,8.8c4.9,0,9.1-3.5,9.1-8.8C699.7-31.5,695.5-35,690.6-35 M673.5-35.1c-2.6,0-4.6,1.1-5.9,2.8
	c-1.1-1.8-3.1-2.8-5.4-2.8c-2.2,0-3.8,0.8-4.9,2v-1.5H652V-18h5.3v-8.1c0-2.8,1.3-4.2,3.2-4.2c1.6,0,2.8,1.2,2.8,3.1v9.3h5.3v-8.1
	c0-2.8,1.3-4.2,3.2-4.2c1.6,0,2.8,1.2,2.8,3.1v9.3h5.3v-10.4C679.9-32.4,677.1-35.1,673.5-35.1"/>
<path id="XMLID_24_" class="st1" d="M650.8-34.6h-5.7l-4.2,9.7l-3.9-9.7h-5.7l6.9,16.1l-3.7,8.5h5.7L650.8-34.6z M628.8-43.5h-5.3
	v20.2c0,3.4,2.3,5.8,5.7,5.8c1.9,0,2.9-0.6,3.9-1l-0.8-4.1c-0.8,0.3-1.5,0.5-1.9,0.5c-1,0-1.6-0.6-1.6-1.5V-43.5z M618.7-43.5h-5.3
	v20.2c0,3.4,2.3,5.8,5.7,5.8c1.9,0,2.9-0.6,3.9-1l-0.8-4.1c-0.8,0.3-1.5,0.5-1.9,0.5c-1,0-1.6-0.6-1.6-1.5V-43.5z M602.8-21.5
	c-1.4,0-2.3-0.7-2.3-1.7c0-1,0.8-1.7,2.2-1.7h3.6v0.4C606.3-22.7,604.6-21.5,602.8-21.5 M603.7-35.1c-4,0-6.9,2-7.6,5.2l5,1
	c0.3-1.5,1.2-2.1,2.8-2.1c1.4,0,2.4,0.9,2.4,2.3v0.3H602c-4.4,0-6.9,2.1-6.9,5.4c0,3.3,2.5,5.4,6.2,5.4c2.2,0,3.8-0.7,5-1.7v1.2h5.1
	v-10.5C611.3-32.8,608.4-35.1,603.7-35.1 M585.9-30.8c1.5,0,2.8,0.8,3.3,2.6h-6.9C582.9-29.9,584.4-30.8,585.9-30.8 M594.5-26.3
	c-0.1-5.4-3.9-8.8-8.6-8.8c-4.8,0-8.8,3.6-8.8,8.8c0,5.3,4,8.8,8.8,8.8c3.8,0,6.8-1.7,8.2-5.2l-4.7-1c-0.9,1.6-2.3,1.9-3.5,1.9
	c-1.8,0-3.1-1.2-3.6-3.2h12.2V-26.3z M575.9-34.8c-2.7,0-4.5,1.4-5.7,3.4v-3.2h-5.3V-18h5.3v-5.2c0-4.3,2-6.2,5.7-6.2h1l0.2-5.3
	C576.7-34.8,576.3-34.8,575.9-34.8"/>
<polygon id="XMLID_23_" class="st1" points="554.6,-70.2 513.1,-18.9 540.5,-18.9 580.8,-70.2 "/>
</svg>
