<?xml version="1.0" encoding="UTF-8"?><svg id="Layer_2" xmlns="http://www.w3.org/2000/svg" viewBox="0 0 252.1 60.4"><defs><style>.cls-1{fill:#e11383;}.cls-2{fill:#4a0d66;}</style></defs><g id="Layer_1-2"><g><polygon class="cls-1" points="56 18.7 62.8 25.6 88.5 25.6 69.3 1.8 56 18.7"/><path class="cls-1" d="M242.7,48.2c-2.3,0-4-1.7-4-4.3s1.7-4.3,4-4.3,4.1,1.8,4.1,4.3c0,2.6-2,4.3-4.1,4.3m9.4-12.6h-5.3v1.3c-1.3-1.2-3-1.8-5.2-1.8-4.4,0-8.1,3.6-8.1,8.8s3.7,8.8,8.1,8.8c2.2,0,3.9-.7,5.2-1.8v1.1c0,2.6-2.1,3.8-4.5,3.8-1.7,0-2.7-.6-3.9-2.1l-4.4,2.7c1.6,2.7,4.5,4,8.3,4,5.4,0,9.8-2.8,9.8-7.9v-16.9Zm-26.6-.5c-2.1,0-3.8,.8-5.1,2.1v-1.6h-5.3v16.6h5.3v-7.7c0-3.2,1.4-4.6,3.4-4.6,1.7,0,2.8,1.3,2.8,3.3v9h5.3v-10.2c.1-4.2-2.5-6.9-6.4-6.9m-13.5,.5h-5.3v16.6h5.3v-16.6Zm-2.7-7.9c-1.8,0-3,1.4-3,3,0,1.7,1.3,2.9,3,2.9,1.8,0,3.1-1.3,3.1-2.9,0-1.6-1.3-3-3.1-3m-4,7.8h-5.6l-4,10.3-4-10.3h-5.6l6.9,16.7h5.4l6.9-16.7Zm-27.8,12.7c-2.2,0-4.1-1.7-4.1-4.3s2-4.3,4.1-4.3,4,1.7,4,4.3-1.9,4.3-4,4.3m0-13c-5,0-9.2,3.5-9.2,8.7s4.2,8.8,9.2,8.8,9.1-3.5,9.1-8.8-4.1-8.7-9.1-8.7m-17.1-.1c-2.6,0-4.6,1.1-5.9,2.8-1.1-1.8-3.1-2.8-5.4-2.8s-3.8,.8-4.9,2v-1.5h-5.3v16.6h5.3v-8.1c0-2.8,1.3-4.2,3.2-4.2,1.6,0,2.8,1.2,2.8,3.1v9.2h5.3v-8.1c0-2.8,1.3-4.2,3.2-4.2,1.6,0,2.8,1.2,2.8,3.1v9.2h5.3v-10.4c0-4-2.8-6.7-6.4-6.7"/><path class="cls-2" d="M137.8,35.5h-5.7l-4.2,9.7-3.9-9.7h-5.7l6.9,16.1-3.7,8.5h5.7l10.6-24.6Zm-22-8.8h-5.3v20.2c0,3.4,2.3,5.8,5.7,5.8,1.9,0,2.9-.6,3.9-1l-.8-4.1c-.8,.3-1.5,.5-1.9,.5-1,0-1.6-.6-1.6-1.5V26.7h0Zm-10.2,0h-5.3v20.2c0,3.4,2.3,5.8,5.7,5.8,1.9,0,2.9-.6,3.9-1l-.8-4.1c-.8,.3-1.5,.5-1.9,.5-1,0-1.6-.6-1.6-1.5V26.7h0Zm-15.9,22c-1.4,0-2.3-.7-2.3-1.7s.8-1.7,2.2-1.7h3.6v.4c0,1.8-1.7,3-3.5,3m1-13.6c-4,0-6.9,2-7.6,5.2l5,1c.3-1.5,1.2-2.1,2.8-2.1,1.4,0,2.4,.9,2.4,2.3v.3h-4.2c-4.4,0-6.9,2.1-6.9,5.4s2.5,5.4,6.2,5.4c2.2,0,3.8-.7,5-1.7v1.3h5.1v-10.5c-.2-4.3-3.2-6.6-7.8-6.6m-17.9,4.3c1.5,0,2.8,.8,3.3,2.6h-6.9c.6-1.7,2.2-2.6,3.6-2.6m8.6,4.5c-.1-5.4-3.9-8.8-8.6-8.8s-8.8,3.6-8.8,8.8,4,8.8,8.8,8.8c3.8,0,6.8-1.7,8.2-5.2l-4.7-1c-.9,1.6-2.3,1.9-3.5,1.9-1.8,0-3.1-1.2-3.6-3.2h12.2v-1.3Zm-18.6-8.5c-2.7,0-4.5,1.4-5.7,3.4v-3.2h-5.3v16.6h5.3v-5.2c0-4.3,2-6.2,5.7-6.2h1l.2-5.3c-.4-.1-.8-.1-1.2-.1"/><polygon class="cls-2" points="41.5 0 0 51.3 27.4 51.2 67.7 0 41.5 0"/></g></g></svg>