<?xml version="1.0" encoding="utf-8"?>
<!-- Generator: Adobe Illustrator 25.0.0, SVG Export Plug-In . SVG Version: 6.00 Build 0)  -->
<svg version="1.1" id="Layer_1" xmlns="http://www.w3.org/2000/svg" xmlns:xlink="http://www.w3.org/1999/xlink" x="0px" y="0px"
	 viewBox="0 0 100 100" style="enable-background:new 0 0 100 100;" xml:space="preserve">
<style type="text/css">
	.st0{fill:#FFFFFF;}
	.st1{fill:none;}
</style>
<g id="Layer_2_1_">
	<g id="Layer_1-2">
		<path class="st0" d="M50,6.5C74,6.5,93.5,26,93.5,50S74,93.5,50,93.5S6.5,74,6.5,50C6.5,26,26,6.5,50,6.5 M50,2.5
			C23.8,2.5,2.5,23.8,2.5,50S23.8,97.5,50,97.5S97.5,76.2,97.5,50C97.5,23.8,76.2,2.5,50,2.5z"/>
		<rect class="st1" width="100" height="100"/>
		<g>
			<g>
				<path class="st0" d="M80,31.4c-2.2,1-4.6,1.6-7.1,1.9c2.6-1.5,4.5-3.9,5.4-6.8c-2.4,1.4-5,2.4-7.8,3c-2.3-2.4-5.5-3.9-9-3.9
					c-6.8,0-12.3,5.5-12.3,12.3c0,1,0.1,1.9,0.3,2.8c-10.2-0.5-19.3-5.4-25.4-12.9c-1.1,1.8-1.7,4-1.7,6.2c0,4.3,2.2,8,5.5,10.2
					c-2,0-3.9-0.6-5.6-1.5c0,0,0,0.1,0,0.1c0,6,4.3,11,9.9,12.1c-1,0.3-2.1,0.4-3.2,0.4c-0.8,0-1.6,0-2.3-0.2
					c1.6,4.9,6.1,8.5,11.5,8.6C34,67.1,28.7,69,22.9,69c-1,0-2,0-2.9-0.2c5.5,3.5,11.9,5.5,18.9,5.5c22.7,0,35-18.8,35-35
					c0-0.5,0-1.1,0-1.6C76.3,36,78.3,33.9,80,31.4z"/>
			</g>
		</g>
	</g>
</g>
</svg>
