<?xml version="1.0" encoding="utf-8"?>
<!-- Generator: Adobe Illustrator 26.5.0, SVG Export Plug-In . SVG Version: 6.00 Build 0)  -->
<svg version="1.1" id="Layer_1" xmlns="http://www.w3.org/2000/svg" xmlns:xlink="http://www.w3.org/1999/xlink" x="0px" y="0px"
	 viewBox="0 0 400 400" style="enable-background:new 0 0 400 400;" xml:space="preserve">
<style type="text/css">
	.st0{fill:#E6007E;}
	.st1{fill:#462561;}
</style>
<polygon id="XMLID_2_" class="st0" points="186.7,169.4 193.5,176.3 219.3,176.3 200,152.5 "/>
<path id="XMLID_13_" class="st0" d="M257.8,234.3c-2.8,0-4.9-2.1-4.9-5.3c0-3.1,2.1-5.3,4.9-5.3c2.6,0,5,2.1,5,5.3
	C262.7,232.2,260.4,234.3,257.8,234.3 M269.2,218.9h-6.5v1.6c-1.6-1.4-3.7-2.2-6.3-2.2c-5.4,0-9.9,4.4-9.9,10.8
	c0,6.4,4.5,10.8,9.9,10.8c2.6,0,4.7-0.8,6.3-2.2v1.4c0,3.2-2.6,4.7-5.5,4.7c-2.1,0-3.3-0.7-4.8-2.5l-5.4,3.3c2,3.3,5.5,4.9,10.2,4.9
	c6.6,0,11.9-3.4,11.9-9.7V218.9z M236.7,218.3c-2.6,0-4.7,0.9-6.2,2.6v-1.9H224v20.3h6.5v-9.4c0-3.9,1.7-5.7,4.2-5.7
	c2.1,0,3.5,1.6,3.5,4v11.1h6.4v-12.5C244.6,221.6,241.5,218.3,236.7,218.3 M220.2,218.9h-6.5v20.3h6.5V218.9z M217,209.2
	c-2.2,0-3.7,1.7-3.7,3.7c0,2.1,1.5,3.6,3.7,3.6s3.8-1.5,3.8-3.6C220.8,210.9,219.2,209.2,217,209.2 M212,218.8h-6.8l-4.9,12.6
	l-4.9-12.6h-6.8l8.4,20.4h6.6L212,218.8z M178.1,234.3c-2.6,0-5-2.1-5-5.3c0-3.2,2.4-5.3,5-5.3c2.5,0,4.9,2.1,4.9,5.3
	C183,232.2,180.6,234.3,178.1,234.3 M178.1,218.4c-6.2,0-11.3,4.3-11.3,10.7c0,6.4,5.1,10.7,11.3,10.7c6,0,11.1-4.3,11.1-10.7
	C189.2,222.6,184.1,218.4,178.1,218.4 M157.2,218.3c-3.2,0-5.6,1.3-7.2,3.4c-1.4-2.2-3.8-3.4-6.6-3.4c-2.6,0-4.6,0.9-6,2.5v-1.9
	h-6.5v20.3h6.5v-10c0-3.4,1.5-5.1,3.9-5.1c1.9,0,3.4,1.5,3.4,3.8v11.3h6.5v-10c0-3.4,1.6-5.1,4-5.1c1.9,0,3.4,1.5,3.4,3.8v11.3h6.4
	v-12.7C165,221.5,161.5,218.3,157.2,218.3"/>
<path id="XMLID_4_" class="st1" d="M268.5,186.2h-5.7l-4.2,9.7l-3.9-9.7H249l6.9,16.1l-3.7,8.5h5.7L268.5,186.2z M246.5,177.4h-5.3
	v20.2c0,3.4,2.3,5.8,5.7,5.8c1.9,0,2.9-0.6,3.9-1l-0.8-4.1c-0.8,0.3-1.5,0.5-1.9,0.5c-1,0-1.6-0.6-1.6-1.5V177.4z M236.3,177.4H231
	v20.2c0,3.4,2.3,5.8,5.7,5.8c1.9,0,2.9-0.6,3.9-1l-0.8-4.1c-0.8,0.3-1.5,0.5-1.9,0.5c-1,0-1.6-0.6-1.6-1.5V177.4z M220.4,199.4
	c-1.4,0-2.3-0.7-2.3-1.7c0-1,0.8-1.7,2.2-1.7h3.6v0.4C223.9,198.2,222.3,199.4,220.4,199.4 M221.4,185.7c-4,0-6.9,2-7.6,5.2l5,1
	c0.3-1.5,1.2-2.1,2.8-2.1c1.4,0,2.4,0.9,2.4,2.3v0.3h-4.2c-4.4,0-6.9,2.1-6.9,5.4c0,3.3,2.5,5.4,6.2,5.4c2.2,0,3.8-0.7,5-1.7v1.2
	h5.1v-10.5C229,188.1,226.1,185.7,221.4,185.7 M203.6,190c1.5,0,2.8,0.8,3.3,2.6h-6.9C200.6,191,202.1,190,203.6,190 M212.2,194.5
	c-0.1-5.4-3.9-8.8-8.6-8.8c-4.8,0-8.8,3.6-8.8,8.8c0,5.3,4,8.8,8.8,8.8c3.8,0,6.8-1.7,8.2-5.2l-4.7-1c-0.9,1.6-2.3,1.9-3.5,1.9
	c-1.8,0-3.1-1.2-3.6-3.2h12.2V194.5z M193.5,186c-2.7,0-4.5,1.4-5.7,3.4v-3.2h-5.3v16.6h5.3v-5.2c0-4.3,2-6.2,5.7-6.2h1l0.2-5.3
	C194.3,186,194,186,193.5,186"/>
<polygon id="XMLID_1_" class="st1" points="172.3,150.7 130.8,201.9 158.1,201.9 198.4,150.7 "/>
</svg>
